<svg width="16" height="16" viewBox="0 0 16 16" fill="none" xmlns="http://www.w3.org/2000/svg">
<g clip-path="url(#clip0_1_4407)">
<path d="M15.2333 0H8.3C8.1 0 7.96667 0.133333 7.96667 0.333333V4.8L0.733334 5.8C0.566668 5.83333 0.433334 5.96667 0.433334 6.13333V15.6667C0.433334 15.8667 0.566668 16 0.766668 16H15.2C15.4 16 15.5333 15.8667 15.5333 15.6667V0.333333C15.5667 0.133333 15.4 0 15.2333 0ZM2.96667 15.3333V12.8667H7.43333V15.3333H2.96667ZM9.26667 15.3333H8.1V12.5333C8.1 12.3333 7.96667 12.2 7.76667 12.2H2.63333C2.43333 12.2 2.3 12.3333 2.3 12.5333V15.3333H1.1V6.4L9.26667 5.3V15.3333ZM14.9 15.3333H9.93333V4.9C9.93333 4.7 9.76667 4.53333 9.56667 4.56667L8.63334 4.7V0.666667H14.9V15.3333Z" fill="#A5A5A5" stroke="#A5A5A5" stroke-width="0.2"/>
<path d="M11.7667 3.33341H13.2C13.4 3.33341 13.5333 3.20008 13.5333 3.00008C13.5333 2.80008 13.4 2.66675 13.2 2.66675H11.7667C11.5667 2.66675 11.4333 2.80008 11.4333 3.00008C11.4333 3.20008 11.5667 3.33341 11.7667 3.33341ZM11.7667 5.83341H13.2C13.4 5.83341 13.5333 5.70008 13.5333 5.50008C13.5333 5.30008 13.4 5.16675 13.2 5.16675H11.7667C11.5667 5.16675 11.4333 5.30008 11.4333 5.50008C11.4333 5.70008 11.5667 5.83341 11.7667 5.83341ZM11.7667 8.33342H13.2C13.4 8.33342 13.5333 8.20008 13.5333 8.00008C13.5333 7.80008 13.4 7.66675 13.2 7.66675H11.7667C11.5667 7.66675 11.4333 7.80008 11.4333 8.00008C11.4333 8.20008 11.5667 8.33342 11.7667 8.33342ZM11.7667 10.8334H13.2C13.4 10.8334 13.5333 10.7001 13.5333 10.5001C13.5333 10.3001 13.4 10.1667 13.2 10.1667H11.7667C11.5667 10.1667 11.4333 10.3001 11.4333 10.5001C11.4333 10.7001 11.5667 10.8334 11.7667 10.8334ZM11.7667 13.3334H13.2C13.4 13.3334 13.5333 13.2001 13.5333 13.0001C13.5333 12.8001 13.4 12.6667 13.2 12.6667H11.7667C11.5667 12.6667 11.4333 12.8001 11.4333 13.0001C11.4333 13.2001 11.5667 13.3334 11.7667 13.3334ZM2.76667 8.33342H3.9C4.1 8.33342 4.23333 8.20008 4.23333 8.00008C4.23333 7.80008 4.1 7.66675 3.9 7.66675H2.76667C2.56667 7.66675 2.43333 7.80008 2.43333 8.00008C2.43333 8.20008 2.6 8.33342 2.76667 8.33342ZM6.46667 8.33342H7.6C7.8 8.33342 7.93333 8.20008 7.93333 8.00008C7.93333 7.80008 7.8 7.66675 7.6 7.66675H6.46667C6.26667 7.66675 6.13333 7.80008 6.13333 8.00008C6.13333 8.20008 6.3 8.33342 6.46667 8.33342ZM2.76667 10.6001H3.9C4.1 10.6001 4.23333 10.4667 4.23333 10.2667C4.23333 10.0667 4.1 9.93341 3.9 9.93341H2.76667C2.56667 9.93341 2.43333 10.0667 2.43333 10.2667C2.43333 10.4667 2.6 10.6001 2.76667 10.6001ZM6.46667 10.6001H7.6C7.8 10.6001 7.93333 10.4667 7.93333 10.2667C7.93333 10.0667 7.8 9.93341 7.6 9.93341H6.46667C6.26667 9.93341 6.13333 10.0667 6.13333 10.2667C6.13333 10.4667 6.3 10.6001 6.46667 10.6001Z" fill="#A5A5A5" stroke="#A5A5A5" stroke-width="0.2"/>
</g>
<defs>
<clipPath id="clip0_1_4407">
<rect width="16" height="16" fill="white"/>
</clipPath>
</defs>
</svg>
