<svg width="12" height="12" viewBox="0 0 12 12" fill="none" xmlns="http://www.w3.org/2000/svg">
<path d="M10.5 5.62502V10.125C10.5 10.2245 10.4605 10.3199 10.3902 10.3902C10.3198 10.4605 10.2245 10.5 10.125 10.5H7.5C7.40054 10.5 7.30516 10.4605 7.23483 10.3902C7.16451 10.3199 7.125 10.2245 7.125 10.125V7.68752C7.125 7.63779 7.10525 7.5901 7.07008 7.55494C7.03492 7.51977 6.98723 7.50002 6.9375 7.50002H5.0625C5.01277 7.50002 4.96508 7.51977 4.92992 7.55494C4.89475 7.5901 4.875 7.63779 4.875 7.68752V10.125C4.875 10.2245 4.83549 10.3199 4.76516 10.3902C4.69484 10.4605 4.59946 10.5 4.5 10.5H1.875C1.77554 10.5 1.68016 10.4605 1.60984 10.3902C1.53951 10.3199 1.5 10.2245 1.5 10.125V5.62502C1.50009 5.42614 1.57917 5.23544 1.71984 5.09486L5.46984 1.34486C5.61048 1.20432 5.80117 1.12537 6 1.12537C6.19883 1.12537 6.38952 1.20432 6.53016 1.34486L10.2802 5.09486C10.4208 5.23544 10.4999 5.42614 10.5 5.62502Z" fill="#EF6C00"/>
</svg>
