<svg width="16" height="16" viewBox="0 0 16 16" fill="none" xmlns="http://www.w3.org/2000/svg">
<path d="M8.32155 12.7731L8.32158 12.7731L7.74736 12.7043L7.66919 12.7667C7.66937 12.7669 7.66955 12.7672 7.66973 12.7674C7.83512 12.9738 8.15163 12.9784 8.32155 12.7731ZM5.6203 8.15277L5.62027 8.15272C5.33352 7.6135 5.0863 7.08626 4.91098 6.60866C4.73506 6.12941 4.63431 5.70739 4.63431 5.37628C4.63431 4.44819 5.01099 3.60666 5.61949 2.99815C7.73324 0.884399 11.3626 2.38837 11.3626 5.37628C11.3626 5.79115 11.2111 6.33206 10.9611 6.93656C10.712 7.53866 10.3695 8.19417 9.99641 8.83506C9.29034 10.048 8.47908 11.2017 7.99754 11.8304C7.31747 10.9457 6.34924 9.52537 5.6203 8.15277Z" fill="#A5A5A5" stroke="#A5A5A5" stroke-width="0.2"/>
<path d="M4.24855 8.23473L4.24874 8.23465C4.37171 8.18482 4.48994 8.19241 4.58801 8.2415C4.6838 8.28945 4.75383 8.37356 4.79188 8.46703C4.82994 8.56051 4.83857 8.66966 4.80328 8.77097C4.76714 8.87468 4.68745 8.96258 4.56423 9.01282L4.56411 9.01287C3.37618 9.49537 2.63675 10.2036 2.48369 10.9299C2.33378 11.6413 2.7383 12.429 3.9811 13.1001C5.74161 14.0506 8.14285 14.1865 10.107 13.7667C11.0883 13.557 11.9525 13.2101 12.5687 12.7641C13.1856 12.3176 13.5416 11.7819 13.5416 11.1927C13.5416 10.6939 13.2718 10.253 12.8661 9.88073C12.4607 9.5088 11.9292 9.21497 11.4322 9.01286L11.4319 9.01271C11.3093 8.96231 11.2303 8.87423 11.1946 8.77064C11.1598 8.66948 11.1685 8.56051 11.2063 8.46714C11.2442 8.37378 11.3139 8.28962 11.4094 8.24159C11.5072 8.19239 11.6251 8.1848 11.7477 8.23469L4.24855 8.23473ZM4.24855 8.23473C3.60401 8.49747 2.94859 8.87665 2.45273 9.36842C1.95622 9.86084 1.61484 10.4715 1.61484 11.1927C1.61484 12.0332 2.06009 12.7507 2.77182 13.3169C3.48272 13.8825 4.46598 14.3033 5.56475 14.5557C7.76057 15.0602 10.4496 14.8994 12.4143 13.8387L12.3668 13.7507M4.24855 8.23473L12.3668 13.7507M12.3668 13.7507C8.49031 15.8435 1.71484 14.3974 1.71484 11.1927C1.71484 9.8188 3.01317 8.84632 4.2863 8.32733L12.3668 13.7507ZM12.3668 13.7507L12.4143 13.8387C13.8863 13.044 14.5195 11.9623 14.3633 10.8991C14.2082 9.8438 13.281 8.85785 11.7478 8.2347L12.3668 13.7507Z" fill="#A5A5A5" stroke="#A5A5A5" stroke-width="0.2"/>
<path d="M9.30562 6.12395L9.33491 6.09466V6.09235C10.4246 4.95528 9.61354 3.05259 8.034 3.05259C7.04505 3.05259 6.23594 3.85641 6.23594 4.85233C6.23594 6.44224 8.1722 7.25737 9.30562 6.12395ZM8.71239 4.17395L8.71235 4.17398L8.71471 4.17619C9.06652 4.50602 9.09377 5.11638 8.74212 5.49975H8.74168L8.71239 5.52904C8.11137 6.13005 7.07586 5.70636 7.07586 4.85233C7.07586 3.99923 8.11023 3.57178 8.71239 4.17395Z" fill="#A5A5A5" stroke="#A5A5A5" stroke-width="0.2"/>
</svg>
