<svg width="12" height="12" viewBox="0 0 12 12" fill="none" xmlns="http://www.w3.org/2000/svg">
<path d="M6.37687 7.89371C8.01583 7.86784 9.6183 7.40574 11.0194 6.55496V9.15371C11.0194 9.55153 10.8613 9.93306 10.58 10.2144C10.2987 10.4957 9.9172 10.6537 9.51937 10.6537H2.48438C2.08655 10.6537 1.70502 10.4957 1.42371 10.2144C1.14241 9.93306 0.984375 9.55153 0.984375 9.15371V6.55496C2.38545 7.40574 3.98792 7.86784 5.62687 7.89371V8.10371C5.62687 8.20316 5.66638 8.29855 5.73671 8.36887C5.80704 8.4392 5.90242 8.47871 6.00187 8.47871C6.10133 8.47871 6.19671 8.4392 6.26704 8.36887C6.33737 8.29855 6.37687 8.20316 6.37687 8.10371V7.89371ZM11.0194 4.28621V5.65871C10.3331 6.11246 10.4981 6.01121 10.2694 6.14621C8.95013 6.82423 7.48505 7.16926 6.00187 7.15121C4.5187 7.16926 3.05362 6.82423 1.73438 6.14621C1.48687 5.99621 1.69313 6.12371 0.984375 5.65871V4.28621C0.984375 3.88838 1.14241 3.50685 1.42371 3.22555C1.70502 2.94424 2.08655 2.78621 2.48438 2.78621H3.98438C4.10326 2.78674 4.21805 2.74279 4.30617 2.66299C4.3943 2.58319 4.44939 2.47331 4.46063 2.35496C4.48948 2.07717 4.62063 1.82005 4.82856 1.6336C5.0365 1.44715 5.30635 1.34471 5.58563 1.34621H6.46312C6.7424 1.34471 7.01225 1.44715 7.22019 1.6336C7.42812 1.82005 7.55927 2.07717 7.58813 2.35496C7.59936 2.47331 7.65445 2.58319 7.74258 2.66299C7.8307 2.74279 7.94549 2.78674 8.06438 2.78621H9.56437C9.95435 2.79791 10.3244 2.9611 10.5961 3.24115C10.8677 3.52119 11.0196 3.89606 11.0194 4.28621ZM6.89437 2.78621C6.84545 2.67437 6.81505 2.55531 6.80437 2.43371C6.79505 2.34089 6.75146 2.25487 6.68212 2.19247C6.61278 2.13006 6.52266 2.09574 6.42937 2.09621H5.56313C5.46984 2.09574 5.37972 2.13006 5.31038 2.19247C5.24104 2.25487 5.19745 2.34089 5.18813 2.43371C5.17745 2.55531 5.14705 2.67437 5.09812 2.78621H6.89437Z" fill="#EF6C00"/>
</svg>
